<svg xmlns="http://www.w3.org/2000/svg" xmlns:xlink="http://www.w3.org/1999/xlink" width="470" height="329" viewBox="0 0 470 329">
  <defs>
    <clipPath id="clip-path">
      <rect id="Retângulo_2" data-name="Retângulo 2" width="470" height="329" transform="translate(655 146)" fill="#fff" stroke="#707070" stroke-width="1"/>
    </clipPath>
  </defs>
  <g id="icone" transform="translate(-655 -146)" clip-path="url(#clip-path)">
    <g id="notre-dame" transform="translate(663.532 84.026)">
      <path id="Caminho_1" data-name="Caminho 1" d="M407.642,243.136A181.174,181.174,0,1,0,61.418,317.87h330.1a180.63,180.63,0,0,0,16.125-74.734Z" fill="#f0f2ff"/>
      <line id="Linha_1" data-name="Linha 1" x2="353.29" transform="translate(49.823 317.871)" fill="none" stroke="#4550e5" stroke-linecap="round" stroke-linejoin="round" stroke-width="4.529"/>
      <line id="Linha_2" data-name="Linha 2" x2="11.323" transform="translate(29.441 317.871)" fill="none" stroke="#4550e5" stroke-linecap="round" stroke-linejoin="round" stroke-width="4.529"/>
      <line id="Linha_3" data-name="Linha 3" x2="11.323" transform="translate(412.172 317.871)" fill="none" stroke="#4550e5" stroke-linecap="round" stroke-linejoin="round" stroke-width="4.529"/>
      <path id="Caminho_2" data-name="Caminho 2" d="M290.468,197.525l16.26,29.8a22.646,22.646,0,0,1,2.763,10.87v54.352l3.669,3.714a9.059,9.059,0,0,1,2.672,6.386v15.264H290.468Z" fill="#d6daff" stroke="#4550e5" stroke-linecap="round" stroke-linejoin="round" stroke-width="4.529"/>
      <line id="Linha_4" data-name="Linha 4" x2="15.853" transform="translate(296.809 283.13)" fill="none" stroke="#4550e5" stroke-linecap="round" stroke-linejoin="round" stroke-width="4.529"/>
      <path id="Caminho_3" data-name="Caminho 3" d="M125.6,197.525l-16.26,29.8a22.647,22.647,0,0,0-2.763,10.87v54.352l-3.714,3.714a9.059,9.059,0,0,0-2.627,6.386v15.264H125.6Z" fill="#d6daff" stroke="#4550e5" stroke-linecap="round" stroke-linejoin="round" stroke-width="4.529"/>
      <path id="Caminho_4" data-name="Caminho 4" d="M357.819,101.231a6.93,6.93,0,0,0-2.718.544,12.637,12.637,0,0,0-25,0,6.93,6.93,0,0,0-2.718-.544,7.609,7.609,0,1,0,0,15.219h30.437a7.609,7.609,0,1,0,0-15.219Z" fill="#fff"/>
      <path id="Caminho_5" data-name="Caminho 5" d="M357.819,101.231a6.93,6.93,0,0,0-2.718.544,12.637,12.637,0,0,0-25,0,6.93,6.93,0,0,0-2.718-.544,7.609,7.609,0,1,0,0,15.219h30.437a7.609,7.609,0,1,0,0-15.219Z" fill="none" stroke="#4550e5" stroke-linejoin="round" stroke-width="4.529"/>
      <path id="Caminho_6" data-name="Caminho 6" d="M239.739,77.044v79.264H176.328V77.044h-57.07V283.13l3.171,3.171v12.682l-3.171,3.171v15.853H296.809V298.983l-3.171-3.171V286.3l3.171-3.171V77.044Z" fill="#fff"/>
      <path id="Caminho_7" data-name="Caminho 7" d="M357.819,101.231a6.93,6.93,0,0,0-2.718.544,12.637,12.637,0,0,0-25,0,6.93,6.93,0,0,0-2.718-.544,7.609,7.609,0,1,0,0,15.219h30.437a7.609,7.609,0,1,0,0-15.219Z" fill="none" stroke="#4550e5" stroke-linejoin="round" stroke-width="4.529"/>
      <path id="Caminho_8" data-name="Caminho 8" d="M239.739,77.044v79.264H176.328V77.044h-57.07V283.13l3.171,3.171v12.682l-3.171,3.171v15.853H296.809V298.983l-3.171-3.171V286.3l3.171-3.171V77.044Z" fill="none" stroke="#4550e5" stroke-linecap="round" stroke-linejoin="round" stroke-width="4.529"/>
      <rect id="Retângulo_3" data-name="Retângulo 3" width="177.551" height="19.023" transform="translate(119.258 238.743)" fill="#d6daff" stroke="#4550e5" stroke-linecap="round" stroke-linejoin="round" stroke-width="4.529"/>
      <path id="Caminho_9" data-name="Caminho 9" d="M300.206,156.308H115.816a1.585,1.585,0,0,0-1.314,2.446h0a28.173,28.173,0,0,1,4.529,15.581v7.338H296.583v-7.338a28.128,28.128,0,0,1,4.529-15.581h0a1.585,1.585,0,0,0-.906-2.446Z" fill="#d6daff" stroke="#4550e5" stroke-linecap="round" stroke-linejoin="round" stroke-width="4.529"/>
      <path id="Caminho_10" data-name="Caminho 10" d="M208.034,270.448h0a25.229,25.229,0,0,0-15.853,23.417v24.141h31.706V293.865a25.319,25.319,0,0,0-15.853-23.417Z" fill="#d6daff" stroke="#4550e5" stroke-linecap="round" stroke-linejoin="round" stroke-width="4.529"/>
      <path id="Caminho_11" data-name="Caminho 11" d="M147.793,276.789h0a25.817,25.817,0,0,0-12.682,23.417v17.8h25.364v-17.8a25.908,25.908,0,0,0-12.682-23.417Z" fill="#d6daff" stroke="#4550e5" stroke-linecap="round" stroke-linejoin="round" stroke-width="4.529"/>
      <path id="Caminho_12" data-name="Caminho 12" d="M147.793,197.525h0a25.817,25.817,0,0,0-12.682,23.417v17.8h25.364v-17.8A25.908,25.908,0,0,0,147.793,197.525Z" fill="#d6daff" stroke="#4550e5" stroke-linecap="round" stroke-linejoin="round" stroke-width="4.529"/>
      <path id="Caminho_13" data-name="Caminho 13" d="M268.274,197.525h0a25.817,25.817,0,0,0-12.682,23.417v17.8H280.82v-17.8a25.908,25.908,0,0,0-12.546-23.417Z" fill="#d6daff" stroke="#4550e5" stroke-linecap="round" stroke-linejoin="round" stroke-width="4.529"/>
      <path id="Caminho_14" data-name="Caminho 14" d="M268.274,276.789h0a25.817,25.817,0,0,0-12.682,23.417v17.8H280.82v-17.8a25.908,25.908,0,0,0-12.546-23.417Z" fill="#d6daff" stroke="#4550e5" stroke-linecap="round" stroke-linejoin="round" stroke-width="4.529"/>
      <line id="Linha_5" data-name="Linha 5" y2="41.217" transform="translate(176.328 238.743)" fill="none" stroke="#4550e5" stroke-linecap="round" stroke-linejoin="round" stroke-width="4.529"/>
      <line id="Linha_6" data-name="Linha 6" y2="41.217" transform="translate(239.739 238.743)" fill="none" stroke="#4550e5" stroke-linecap="round" stroke-linejoin="round" stroke-width="4.529"/>
      <line id="Linha_7" data-name="Linha 7" y2="15.853" transform="translate(176.328 181.673)" fill="none" stroke="#4550e5" stroke-linecap="round" stroke-linejoin="round" stroke-width="4.529"/>
      <line id="Linha_8" data-name="Linha 8" y2="15.853" transform="translate(239.739 181.673)" fill="none" stroke="#4550e5" stroke-linecap="round" stroke-linejoin="round" stroke-width="4.529"/>
      <path id="Caminho_15" data-name="Caminho 15" d="M208.034,191.184h0a25.364,25.364,0,0,0-25.364,25.364v22.194H233.4V216.549A25.364,25.364,0,0,0,208.034,191.184Z" fill="#d6daff" stroke="#4550e5" stroke-linecap="round" stroke-linejoin="round" stroke-width="4.529"/>
      <circle id="Elipse_1" data-name="Elipse 1" cx="15.853" cy="15.853" r="15.853" transform="translate(192.181 200.696)" fill="#d6daff"/>
      <path id="Caminho_16" data-name="Caminho 16" d="M219.357,205.542a15.626,15.626,0,0,0-11.323-4.846,15.807,15.807,0,0,0-4.529,31.026Z" fill="#fff"/>
      <circle id="Elipse_2" data-name="Elipse 2" cx="15.853" cy="15.853" r="15.853" transform="translate(192.181 200.696)" fill="none" stroke="#4550e5" stroke-linecap="round" stroke-linejoin="round" stroke-width="4.529"/>
      <line id="Linha_9" data-name="Linha 9" y2="6.341" transform="translate(176.328 289.471)" fill="none" stroke="#4550e5" stroke-linecap="round" stroke-linejoin="round" stroke-width="4.529"/>
      <line id="Linha_10" data-name="Linha 10" y2="6.341" transform="translate(239.739 289.471)" fill="none" stroke="#4550e5" stroke-linecap="round" stroke-linejoin="round" stroke-width="4.529"/>
      <line id="Linha_11" data-name="Linha 11" y1="19.023" transform="translate(147.793 238.743)" fill="none" stroke="#4550e5" stroke-linecap="round" stroke-linejoin="round" stroke-width="4.529"/>
      <line id="Linha_12" data-name="Linha 12" y1="9.512" transform="translate(131.94 248.254)" fill="none" stroke="#4550e5" stroke-linecap="round" stroke-linejoin="round" stroke-width="4.529"/>
      <line id="Linha_13" data-name="Linha 13" y1="9.512" transform="translate(163.646 248.254)" fill="none" stroke="#4550e5" stroke-linecap="round" stroke-linejoin="round" stroke-width="4.529"/>
      <line id="Linha_14" data-name="Linha 14" y1="19.023" transform="translate(208.034 238.743)" fill="none" stroke="#4550e5" stroke-linecap="round" stroke-linejoin="round" stroke-width="4.529"/>
      <line id="Linha_15" data-name="Linha 15" y1="9.512" transform="translate(192.181 248.254)" fill="none" stroke="#4550e5" stroke-linecap="round" stroke-linejoin="round" stroke-width="4.529"/>
      <line id="Linha_16" data-name="Linha 16" y1="9.512" transform="translate(223.886 248.254)" fill="none" stroke="#4550e5" stroke-linecap="round" stroke-linejoin="round" stroke-width="4.529"/>
      <line id="Linha_17" data-name="Linha 17" y1="19.023" transform="translate(268.274 238.743)" fill="none" stroke="#4550e5" stroke-linecap="round" stroke-linejoin="round" stroke-width="4.529"/>
      <line id="Linha_18" data-name="Linha 18" y1="9.512" transform="translate(252.421 248.254)" fill="none" stroke="#4550e5" stroke-linecap="round" stroke-linejoin="round" stroke-width="4.529"/>
      <line id="Linha_19" data-name="Linha 19" y1="9.512" transform="translate(284.127 248.254)" fill="none" stroke="#4550e5" stroke-linecap="round" stroke-linejoin="round" stroke-width="4.529"/>
      <path id="Caminho_17" data-name="Caminho 17" d="M144.17,162.2l-2.718-2.718-2.718,2.718a12.32,12.32,0,0,0-3.623,8.787v10.689h12.682V170.983a12.5,12.5,0,0,0-3.623-8.787Z" fill="#fff" stroke="#4550e5" stroke-linecap="round" stroke-linejoin="round" stroke-width="4.529"/>
      <path id="Caminho_18" data-name="Caminho 18" d="M177.46,162.2l-2.718-2.718-2.718,2.718a12.32,12.32,0,0,0-3.623,8.787v10.689h12.773V170.983a12.5,12.5,0,0,0-3.714-8.787Z" fill="#fff" stroke="#4550e5" stroke-linecap="round" stroke-linejoin="round" stroke-width="4.529"/>
      <path id="Caminho_19" data-name="Caminho 19" d="M210.751,162.2l-2.718-2.718-2.718,2.718a12.32,12.32,0,0,0-3.623,8.787v10.689h12.682V170.983A12.5,12.5,0,0,0,210.751,162.2Z" fill="#fff" stroke="#4550e5" stroke-linecap="round" stroke-linejoin="round" stroke-width="4.529"/>
      <path id="Caminho_20" data-name="Caminho 20" d="M244.042,162.2l-2.718-2.718-2.718,2.718a12.32,12.32,0,0,0-3.624,8.787v10.689h12.682V170.983A12.5,12.5,0,0,0,244.042,162.2Z" fill="#fff" stroke="#4550e5" stroke-linecap="round" stroke-linejoin="round" stroke-width="4.529"/>
      <path id="Caminho_21" data-name="Caminho 21" d="M271.762,162.2l2.718-2.718L277.2,162.2a12.5,12.5,0,0,1,3.623,8.787v10.689H268.138V170.983a12.32,12.32,0,0,1,3.623-8.787Z" fill="#fff" stroke="#4550e5" stroke-linecap="round" stroke-linejoin="round" stroke-width="4.529"/>
      <line id="Linha_20" data-name="Linha 20" y2="6.341" transform="translate(160.475 156.308)" fill="none" stroke="#4550e5" stroke-linecap="round" stroke-linejoin="round" stroke-width="4.529"/>
      <line id="Linha_21" data-name="Linha 21" y2="6.341" transform="translate(128.77 156.308)" fill="none" stroke="#4550e5" stroke-linecap="round" stroke-linejoin="round" stroke-width="4.529"/>
      <line id="Linha_22" data-name="Linha 22" y2="6.341" transform="translate(192.181 156.308)" fill="none" stroke="#4550e5" stroke-linecap="round" stroke-linejoin="round" stroke-width="4.529"/>
      <line id="Linha_23" data-name="Linha 23" y2="6.341" transform="translate(223.886 156.308)" fill="none" stroke="#4550e5" stroke-linecap="round" stroke-linejoin="round" stroke-width="4.529"/>
      <line id="Linha_24" data-name="Linha 24" y2="6.341" transform="translate(255.592 156.308)" fill="none" stroke="#4550e5" stroke-linecap="round" stroke-linejoin="round" stroke-width="4.529"/>
      <line id="Linha_25" data-name="Linha 25" y2="6.341" transform="translate(287.297 156.308)" fill="none" stroke="#4550e5" stroke-linecap="round" stroke-linejoin="round" stroke-width="4.529"/>
      <path id="Caminho_22" data-name="Caminho 22" d="M206.267,295.813h3.623a4.529,4.529,0,0,1,4.529,4.529v17.665H201.738V300.342A4.529,4.529,0,0,1,206.267,295.813Z" fill="#d6daff"/>
      <path id="Caminho_23" data-name="Caminho 23" d="M209.891,295.813h-3.623a4.529,4.529,0,0,0-4.529,4.529v17.665h.906l11.5-19.069A4.529,4.529,0,0,0,209.891,295.813Z" fill="#fff"/>
      <path id="Caminho_24" data-name="Caminho 24" d="M206.267,295.813h3.623a4.529,4.529,0,0,1,4.529,4.529v17.665H201.738V300.342A4.529,4.529,0,0,1,206.267,295.813Z" fill="none" stroke="#4550e5" stroke-linecap="round" stroke-linejoin="round" stroke-width="4.529"/>
      <path id="Caminho_25" data-name="Caminho 25" d="M135.111,102.409h0a21.65,21.65,0,0,0-6.341,15.355v38.59h12.682v-38.59A21.877,21.877,0,0,0,135.111,102.409Z" fill="#d6daff"/>
      <path id="Caminho_26" data-name="Caminho 26" d="M141.452,123.7v-5.933a21.877,21.877,0,0,0-6.341-15.309h0a21.65,21.65,0,0,0-6.341,15.309V144.94Z" fill="#fff"/>
      <path id="Caminho_27" data-name="Caminho 27" d="M135.111,102.409h0a21.65,21.65,0,0,0-6.341,15.355v38.59h12.682v-38.59A21.877,21.877,0,0,0,135.111,102.409Z" fill="none" stroke="#4550e5" stroke-linecap="round" stroke-linejoin="round" stroke-width="4.529"/>
      <path id="Caminho_28" data-name="Caminho 28" d="M160.475,102.409h0A21.65,21.65,0,0,0,154,117.763v38.59H166.68v-38.59A21.877,21.877,0,0,0,160.475,102.409Z" fill="#d6daff"/>
      <path id="Caminho_29" data-name="Caminho 29" d="M166.816,123.7v-5.933a21.877,21.877,0,0,0-6.341-15.309h0A21.65,21.65,0,0,0,154,117.763V144.94Z" fill="#fff"/>
      <path id="Caminho_30" data-name="Caminho 30" d="M160.475,102.409h0A21.65,21.65,0,0,0,154,117.763v38.59H166.68v-38.59A21.877,21.877,0,0,0,160.475,102.409Z" fill="none" stroke="#4550e5" stroke-linecap="round" stroke-linejoin="round" stroke-width="4.529"/>
      <path id="Caminho_31" data-name="Caminho 31" d="M255.592,102.409h0a21.65,21.65,0,0,0-6.477,15.355v38.59H261.8v-38.59a21.877,21.877,0,0,0-6.205-15.355Z" fill="#d6daff"/>
      <path id="Caminho_32" data-name="Caminho 32" d="M261.933,123.7v-5.933a21.877,21.877,0,0,0-6.341-15.309h0a21.65,21.65,0,0,0-6.477,15.309V144.94Z" fill="#fff"/>
      <path id="Caminho_33" data-name="Caminho 33" d="M255.592,102.409h0a21.65,21.65,0,0,0-6.477,15.355v38.59H261.8v-38.59a21.877,21.877,0,0,0-6.205-15.355Z" fill="none" stroke="#4550e5" stroke-linecap="round" stroke-linejoin="round" stroke-width="4.529"/>
      <path id="Caminho_34" data-name="Caminho 34" d="M280.82,102.409h0a21.65,21.65,0,0,0-6.205,15.355v38.59H287.3v-38.59A21.877,21.877,0,0,0,280.82,102.409Z" fill="#d6daff"/>
      <path id="Caminho_35" data-name="Caminho 35" d="M287.3,123.7v-5.933a21.877,21.877,0,0,0-6.477-15.355h0a21.65,21.65,0,0,0-6.205,15.355V144.94Z" fill="#fff"/>
      <path id="Caminho_36" data-name="Caminho 36" d="M280.82,102.409h0a21.65,21.65,0,0,0-6.205,15.355v38.59H287.3v-38.59A21.877,21.877,0,0,0,280.82,102.409Z" fill="none" stroke="#4550e5" stroke-linecap="round" stroke-linejoin="round" stroke-width="4.529"/>
      <line id="Linha_26" data-name="Linha 26" x2="63.411" transform="translate(116.088 89.727)" fill="none" stroke="#4550e5" stroke-linecap="round" stroke-linejoin="round" stroke-width="4.529"/>
      <line id="Linha_27" data-name="Linha 27" x2="63.411" transform="translate(116.088 77.044)" fill="none" stroke="#4550e5" stroke-linecap="round" stroke-linejoin="round" stroke-width="4.529"/>
      <line id="Linha_28" data-name="Linha 28" x2="63.411" transform="translate(236.568 89.727)" fill="none" stroke="#4550e5" stroke-linecap="round" stroke-linejoin="round" stroke-width="4.529"/>
      <line id="Linha_29" data-name="Linha 29" x2="63.411" transform="translate(236.568 77.044)" fill="none" stroke="#4550e5" stroke-linecap="round" stroke-linejoin="round" stroke-width="4.529"/>
      <line id="Linha_30" data-name="Linha 30" x2="183.892" transform="translate(116.088 181.673)" fill="none" stroke="#4550e5" stroke-linecap="round" stroke-linejoin="round" stroke-width="4.529"/>
      <line id="Linha_31" data-name="Linha 31" x2="209.256" transform="translate(103.405 238.743)" fill="none" stroke="#4550e5" stroke-linecap="round" stroke-linejoin="round" stroke-width="4.529"/>
      <line id="Linha_32" data-name="Linha 32" x1="15.853" transform="translate(103.405 283.13)" fill="none" stroke="#4550e5" stroke-linecap="round" stroke-linejoin="round" stroke-width="4.529"/>
      <rect id="Retângulo_4" data-name="Retângulo 4" width="57.07" height="12.682" transform="translate(119.258 77.044)" fill="#d6daff" stroke="#4550e5" stroke-linecap="round" stroke-linejoin="round" stroke-width="4.529"/>
      <rect id="Retângulo_5" data-name="Retângulo 5" width="57.07" height="12.682" transform="translate(239.739 77.044)" fill="#d6daff" stroke="#4550e5" stroke-linecap="round" stroke-linejoin="round" stroke-width="4.529"/>
      <line id="Linha_33" data-name="Linha 33" y2="31.706" transform="translate(208.034 200.696)" fill="none" stroke="#4550e5" stroke-linecap="round" stroke-linejoin="round" stroke-width="4.529"/>
      <line id="Linha_34" data-name="Linha 34" x2="31.706" transform="translate(192.181 216.549)" fill="none" stroke="#4550e5" stroke-linecap="round" stroke-linejoin="round" stroke-width="4.529"/>
      <rect id="Retângulo_6" data-name="Retângulo 6" width="25.364" height="19.023" transform="translate(135.111 219.719)" fill="#d6daff"/>
      <path id="Caminho_37" data-name="Caminho 37" d="M135.111,219.719v19.023h9.512l11.414-19.023Z" fill="#fff"/>
      <rect id="Retângulo_7" data-name="Retângulo 7" width="25.364" height="19.023" transform="translate(135.111 219.719)" fill="none" stroke="#4550e5" stroke-linecap="round" stroke-linejoin="round" stroke-width="4.529"/>
      <rect id="Retângulo_8" data-name="Retângulo 8" width="25.364" height="19.023" transform="translate(255.592 219.719)" fill="#d6daff"/>
      <path id="Caminho_38" data-name="Caminho 38" d="M255.592,219.719v19.023H265.1l11.414-19.023Z" fill="#fff"/>
      <rect id="Retângulo_9" data-name="Retângulo 9" width="25.364" height="19.023" transform="translate(255.592 219.719)" fill="none" stroke="#4550e5" stroke-linecap="round" stroke-linejoin="round" stroke-width="4.529"/>
      <rect id="Retângulo_10" data-name="Retângulo 10" width="25.364" height="19.023" transform="translate(135.111 298.983)" fill="#d6daff"/>
      <path id="Caminho_39" data-name="Caminho 39" d="M135.111,298.983v19.023h9.512l11.414-19.023Z" fill="#fff"/>
      <rect id="Retângulo_11" data-name="Retângulo 11" width="25.364" height="19.023" transform="translate(135.111 298.983)" fill="none" stroke="#4550e5" stroke-linecap="round" stroke-linejoin="round" stroke-width="4.529"/>
      <rect id="Retângulo_12" data-name="Retângulo 12" width="25.364" height="19.023" transform="translate(255.592 298.983)" fill="#d6daff"/>
      <path id="Caminho_40" data-name="Caminho 40" d="M255.592,298.983v19.023H265.1l11.414-19.023Z" fill="#fff"/>
      <rect id="Retângulo_13" data-name="Retângulo 13" width="25.364" height="19.023" transform="translate(255.592 298.983)" fill="none" stroke="#4550e5" stroke-linecap="round" stroke-linejoin="round" stroke-width="4.529"/>
      <path id="Caminho_41" data-name="Caminho 41" d="M357.819,282.043c0,10.508-3.759,19.612-7.972,19.612s-7.972-9.059-7.972-19.612,7.972-38.183,7.972-38.183S357.819,271.49,357.819,282.043Z" fill="#d6daff" stroke="#4550e5" stroke-linecap="round" stroke-linejoin="round" stroke-width="4.529"/>
      <line id="Linha_35" data-name="Linha 35" y2="16.351" transform="translate(349.984 301.655)" fill="none" stroke="#4550e5" stroke-linecap="round" stroke-linejoin="round" stroke-width="4.529"/>
      <path id="Caminho_42" data-name="Caminho 42" d="M77.905,253.644a12.41,12.41,0,0,1-24.776,0" fill="none" stroke="#4550e5" stroke-linecap="round" stroke-linejoin="round" stroke-width="4.529"/>
      <path id="Caminho_43" data-name="Caminho 43" d="M57.749,249.115H48.691a2.4,2.4,0,0,1-1.449-.544,1.9,1.9,0,0,0,0,.725l.906,6.749a2.31,2.31,0,0,0,2.265,1.948h5.843a2.219,2.219,0,0,0,2.219-1.948l.906-6.749a1.9,1.9,0,0,0,0-.725,2.174,2.174,0,0,1-1.631.544Z" fill="#fff" stroke="#4550e5" stroke-linecap="round" stroke-linejoin="round" stroke-width="4.529"/>
      <path id="Caminho_44" data-name="Caminho 44" d="M53.129,239.331a6.885,6.885,0,0,0-6.839,6.885c0,1.993,1,2.808,2.265,2.808h9.059c1.268,0,2.265-.815,2.265-2.808a6.885,6.885,0,0,0-6.75-6.885Z" fill="#d6daff" stroke="#4550e5" stroke-linecap="round" stroke-linejoin="round" stroke-width="4.529"/>
      <path id="Caminho_45" data-name="Caminho 45" d="M82.525,249.115H73.466a2.174,2.174,0,0,1-1.4-.544,3.533,3.533,0,0,0,0,.725l.906,6.749a2.31,2.31,0,0,0,2.265,1.948h5.843a2.219,2.219,0,0,0,2.219-1.948l.725-6.93a3.533,3.533,0,0,0,0-.725,2.174,2.174,0,0,1-1.495.725Z" fill="#fff" stroke="#4550e5" stroke-linecap="round" stroke-linejoin="round" stroke-width="4.529"/>
      <path id="Caminho_46" data-name="Caminho 46" d="M77.905,239.331a6.885,6.885,0,0,0-6.839,6.885c0,1.993,1,2.808,2.265,2.808h9.059c1.268,0,2.265-.815,2.265-2.808a6.885,6.885,0,0,0-6.75-6.885Z" fill="#d6daff" stroke="#4550e5" stroke-linecap="round" stroke-linejoin="round" stroke-width="4.529"/>
      <line id="Linha_36" data-name="Linha 36" y2="52.042" transform="translate(65.54 265.964)" fill="none" stroke="#4550e5" stroke-linecap="round" stroke-linejoin="round" stroke-width="4.529"/>
      <ellipse id="Elipse_3" data-name="Elipse 3" cx="61.146" cy="6.794" rx="61.146" ry="6.794" transform="translate(88.187 377.386)" fill="#f0f2ff"/>
      <path id="Caminho_47" data-name="Caminho 47" d="M173.022,310.9v15.943H97.291a4.529,4.529,0,0,0-4.529,4.529V368.6a4.529,4.529,0,0,0,3.85,4.529l10.825,1.676H198.93a4.529,4.529,0,0,0,4.529-4.529v-35.1a67.936,67.936,0,0,0-.679-9.6l-1.631-11.278a9.059,9.059,0,0,0-9.059-7.79H177.551A4.529,4.529,0,0,0,173.022,310.9Z" fill="#fff" stroke="#4550e5" stroke-linecap="round" stroke-linejoin="round" stroke-width="4.529"/>
      <path id="Caminho_48" data-name="Caminho 48" d="M126.052,374.759a8.289,8.289,0,1,1-8.289-8.289,8.289,8.289,0,0,1,8.289,8.289Z" fill="#d6daff" stroke="#4550e5" stroke-linecap="round" stroke-linejoin="round" stroke-width="4.529"/>
      <path id="Caminho_49" data-name="Caminho 49" d="M185.387,374.759a8.289,8.289,0,1,1-8.289-8.289A8.289,8.289,0,0,1,185.387,374.759Z" fill="#d6daff" stroke="#4550e5" stroke-linecap="round" stroke-linejoin="round" stroke-width="4.529"/>
      <rect id="Retângulo_14" data-name="Retângulo 14" width="15.853" height="30.03" transform="translate(137.058 344.73)" fill="#d6daff" stroke="#4550e5" stroke-linecap="round" stroke-linejoin="round" stroke-width="4.529"/>
      <rect id="Retângulo_15" data-name="Retângulo 15" width="25.002" height="13.769" transform="translate(102.907 344.73)" fill="#d6daff"/>
      <rect id="Retângulo_16" data-name="Retângulo 16" width="25.002" height="13.769" transform="translate(102.907 344.73)" fill="none" stroke="#4550e5" stroke-linecap="round" stroke-linejoin="round" stroke-width="4.529"/>
      <rect id="Retângulo_17" data-name="Retângulo 17" width="15.853" height="13.769" transform="translate(161.879 344.73)" fill="#d6daff"/>
      <rect id="Retângulo_18" data-name="Retângulo 18" width="15.853" height="13.769" transform="translate(161.879 344.73)" fill="none" stroke="#4550e5" stroke-linecap="round" stroke-linejoin="round" stroke-width="4.529"/>
      <rect id="Retângulo_19" data-name="Retângulo 19" width="15.853" height="13.769" transform="translate(187.606 344.73)" fill="#d6daff"/>
      <rect id="Retângulo_20" data-name="Retângulo 20" width="15.853" height="13.769" transform="translate(187.606 344.73)" fill="none" stroke="#4550e5" stroke-linecap="round" stroke-linejoin="round" stroke-width="4.529"/>
      <path id="Caminho_50" data-name="Caminho 50" d="M187.334,327.156h15.626l-1.585-11.233H187.334a4.529,4.529,0,0,0-4.529,4.529v2.265a4.529,4.529,0,0,0,4.529,4.439Z" fill="#d6daff"/>
      <path id="Caminho_51" data-name="Caminho 51" d="M187.334,327.156h15.626l-1.585-11.233H187.334a4.529,4.529,0,0,0-4.529,4.529v2.265a4.529,4.529,0,0,0,4.529,4.439Z" fill="none" stroke="#4550e5" stroke-linecap="round" stroke-linejoin="round" stroke-width="4.529"/>
      <path id="Caminho_52" data-name="Caminho 52" d="M103.451,318.006h69.571v8.832h-74.1v-4.3A4.529,4.529,0,0,1,103.451,318.006Z" fill="none" stroke="#4550e5" stroke-linecap="round" stroke-linejoin="round" stroke-width="4.529"/>
      <rect id="Retângulo_21" data-name="Retângulo 21" width="10.553" height="8.832" transform="translate(111.558 318.006)" fill="none" stroke="#4550e5" stroke-linecap="round" stroke-linejoin="round" stroke-width="4.529"/>
      <rect id="Retângulo_22" data-name="Retângulo 22" width="10.553" height="8.832" transform="translate(132.121 318.006)" fill="none" stroke="#4550e5" stroke-linecap="round" stroke-linejoin="round" stroke-width="4.529"/>
      <rect id="Retângulo_23" data-name="Retângulo 23" width="10.553" height="8.832" transform="translate(152.911 318.006)" fill="none" stroke="#4550e5" stroke-linecap="round" stroke-linejoin="round" stroke-width="4.529"/>
      <rect id="Retângulo_24" data-name="Retângulo 24" width="15.853" height="13.769" transform="translate(137.058 344.73)" fill="#d6daff" stroke="#4550e5" stroke-linecap="round" stroke-linejoin="round" stroke-width="4.529"/>
      <line id="Linha_37" data-name="Linha 37" x2="90.361" transform="translate(103.768 335.807)" fill="none" stroke="#4550e5" stroke-linecap="round" stroke-linejoin="round" stroke-width="4.529"/>
    </g>
  </g>
</svg>
