<svg xmlns="http://www.w3.org/2000/svg" xmlns:xlink="http://www.w3.org/1999/xlink" width="370" height="250" viewBox="0 0 370 250">
  <defs>
    <clipPath id="clip-path">
      <rect id="Ret칙ngulo_50" data-name="Ret칙ngulo 50" width="370" height="250" transform="translate(755 2344)" fill="#fff"/>
    </clipPath>
  </defs>
  <g id="Grupo_de_m치scara_4" data-name="Grupo de m치scara 4" transform="translate(-755 -2344)" clip-path="url(#clip-path)">
    <g id="customer-service-woman" transform="translate(760.112 2289.09)">
      <path id="Caminho_95" data-name="Caminho 95" d="M323.8,198.776a143.911,143.911,0,1,0-275.013,59.4H310.991a143.659,143.659,0,0,0,12.808-59.4Z" fill="#f0f2ff"/>
      <line id="Linha_57" data-name="Linha 57" x2="280.626" transform="translate(39.575 258.176)" fill="none" stroke="#4550e5" stroke-linecap="round" stroke-linejoin="round" stroke-width="3.598"/>
      <line id="Linha_58" data-name="Linha 58" x2="8.994" transform="translate(23.385 258.176)" fill="none" stroke="#4550e5" stroke-linecap="round" stroke-linejoin="round" stroke-width="3.598"/>
      <line id="Linha_59" data-name="Linha 59" x2="8.994" transform="translate(327.396 258.176)" fill="none" stroke="#4550e5" stroke-linecap="round" stroke-linejoin="round" stroke-width="3.598"/>
      <ellipse id="Elipse_13" data-name="Elipse 13" cx="64.76" cy="5.397" rx="64.76" ry="5.397" transform="translate(87.929 294.117)" fill="#f0f2ff"/>
      <path id="Caminho_96" data-name="Caminho 96" d="M228.1,180.428a21.587,21.587,0,0,0,21.587-21.587V115.668a43.173,43.173,0,0,0-46.051-43.173,44.109,44.109,0,0,0-40.295,44.648v41.7a21.587,21.587,0,0,0,21.587,21.587Z" fill="#fff"/>
      <path id="Caminho_97" data-name="Caminho 97" d="M228.1,180.428a21.587,21.587,0,0,0,21.587-21.587V115.668a43.173,43.173,0,0,0-46.051-43.173,44.109,44.109,0,0,0-40.295,44.648v41.7a21.587,21.587,0,0,0,21.587,21.587Z" fill="none" stroke="#4550e5" stroke-linecap="round" stroke-linejoin="round" stroke-width="3.598"/>
      <path id="Caminho_98" data-name="Caminho 98" d="M206.512,173.952a56.125,56.125,0,0,0-56.125,56.305v15.111c0,28.458-10.11,32.38-21.3,32.38h-8.922v19.428h8.922c15.686,0,42.885-13.06,42.885-38.856H241.05c0,16.406-12.088,19.428-21.3,19.428h-8.922v19.428h8.922c17.7-.18,42.885-3.958,42.885-39.036V230.257a56.089,56.089,0,0,0-56.125-56.305Z" fill="#fff"/>
      <path id="Caminho_99" data-name="Caminho 99" d="M206.512,173.952a56.125,56.125,0,0,0-56.125,56.305v15.111c0,28.458-10.11,32.38-21.3,32.38h-8.922v19.428h8.922c15.686,0,42.885-13.06,42.885-38.856H241.05c0,16.406-12.088,19.428-21.3,19.428h-8.922v19.428h8.922c17.7-.18,42.885-3.958,42.885-39.036V230.257a56.089,56.089,0,0,0-56.125-56.305Z" fill="none" stroke="#4550e5" stroke-linecap="round" stroke-linejoin="round" stroke-width="3.598"/>
      <line id="Linha_60" data-name="Linha 60" y2="25.904" transform="translate(171.973 232.236)" fill="none" stroke="#4550e5" stroke-linecap="round" stroke-linejoin="round" stroke-width="3.598"/>
      <line id="Linha_61" data-name="Linha 61" y2="25.904" transform="translate(241.05 232.236)" fill="none" stroke="#4550e5" stroke-linecap="round" stroke-linejoin="round" stroke-width="3.598"/>
      <path id="Caminho_100" data-name="Caminho 100" d="M210.829,295.017h-6.476a8.635,8.635,0,0,1,0-17.269h6.476Z" fill="#fff" stroke="#4550e5" stroke-linecap="round" stroke-linejoin="round" stroke-width="3.598"/>
      <path id="Caminho_101" data-name="Caminho 101" d="M120.165,295.017h-6.476a8.635,8.635,0,0,1,0-17.269h6.476Z" fill="#fff" stroke="#4550e5" stroke-linecap="round" stroke-linejoin="round" stroke-width="3.598"/>
      <line id="Linha_62" data-name="Linha 62" y2="56.125" transform="translate(206.512 202.014)" fill="none" stroke="#4550e5" stroke-linecap="round" stroke-linejoin="round" stroke-width="3.598"/>
      <path id="Caminho_102" data-name="Caminho 102" d="M219.464,176.111l-12.952,25.9-12.952-25.9V165.317h25.9Z" fill="#fff"/>
      <path id="Caminho_103" data-name="Caminho 103" d="M219.464,176.111l-12.952,25.9-12.952-25.9V165.317h25.9Z" fill="none" stroke="#4550e5" stroke-linecap="round" stroke-linejoin="round" stroke-width="3.598"/>
      <path id="Caminho_104" data-name="Caminho 104" d="M186.292,196.006a3.572,3.572,0,0,0,5.756-.108l6.476-8.994a3.6,3.6,0,0,0,0-4.281l-5.325-7.2a56.125,56.125,0,0,0-16.945,7.2Z" fill="#fff" stroke="#4550e5" stroke-linecap="round" stroke-linejoin="round" stroke-width="3.598"/>
      <path id="Caminho_105" data-name="Caminho 105" d="M226.659,196.006a3.6,3.6,0,0,1-5.756,0l-6.368-8.922a3.6,3.6,0,0,1,0-4.281l5.325-7.2a56.305,56.305,0,0,1,16.981,7.2Z" fill="#fff" stroke="#4550e5" stroke-linecap="round" stroke-linejoin="round" stroke-width="3.598"/>
      <path id="Caminho_106" data-name="Caminho 106" d="M243.209,126.461V114.841a38.784,38.784,0,0,1-49.145-8.707,21.946,21.946,0,0,1-19.932,16.19,19.14,19.14,0,0,1-4.317-.5v4.821a6.512,6.512,0,0,0-6.476,6.476v2.159a6.512,6.512,0,0,0,6.476,6.476h.612a36.661,36.661,0,0,0,72.207,0h.576a6.476,6.476,0,0,0,6.476-6.476v-2.159a6.476,6.476,0,0,0-6.476-6.656Z" fill="#fff" stroke="#4550e5" stroke-linecap="round" stroke-linejoin="round" stroke-width="3.598"/>
      <path id="Caminho_107" data-name="Caminho 107" d="M189.242,141.572a4.317,4.317,0,1,1-4.317-4.317,4.317,4.317,0,0,1,4.317,4.317Z" fill="#d6daff"/>
      <path id="Caminho_108" data-name="Caminho 108" d="M232.415,141.572a4.317,4.317,0,1,1-4.317-4.317A4.317,4.317,0,0,1,232.415,141.572Z" fill="#d6daff"/>
      <path id="Caminho_109" data-name="Caminho 109" d="M195.718,150.207a15.65,15.65,0,0,0,21.587,0" fill="none" stroke="#4550e5" stroke-linecap="round" stroke-linejoin="round" stroke-width="3.598"/>
      <path id="Caminho_110" data-name="Caminho 110" d="M225.94,130.779a5.864,5.864,0,0,0-10.793,0" fill="none" stroke="#4550e5" stroke-linecap="round" stroke-linejoin="round" stroke-width="3.598"/>
      <path id="Caminho_111" data-name="Caminho 111" d="M197.877,130.059a5.864,5.864,0,0,0-10.793,0" fill="none" stroke="#4550e5" stroke-linecap="round" stroke-linejoin="round" stroke-width="3.598"/>
      <path id="Caminho_112" data-name="Caminho 112" d="M154.7,141.572v6.476a19.428,19.428,0,0,0,19.428,19.428h10.793" fill="none" stroke="#4550e5" stroke-linecap="round" stroke-linejoin="round" stroke-width="3.598"/>
      <path id="Caminho_113" data-name="Caminho 113" d="M159.021,124.3h8.635v21.587h-8.635a4.317,4.317,0,0,1-4.317-4.317V128.62A4.317,4.317,0,0,1,159.021,124.3Z" fill="#fff" stroke="#4550e5" stroke-linecap="round" stroke-linejoin="round" stroke-width="3.598"/>
      <path id="Caminho_114" data-name="Caminho 114" d="M163.338,141.572a4.317,4.317,0,0,0,8.635,0V128.62a4.317,4.317,0,1,0-8.635,0Z" fill="#d6daff" stroke="#4550e5" stroke-linecap="round" stroke-linejoin="round" stroke-width="3.598"/>
      <path id="Caminho_115" data-name="Caminho 115" d="M249.685,124.3h8.635v21.587h-8.635a4.317,4.317,0,0,1-4.317-4.317V128.62A4.317,4.317,0,0,1,249.685,124.3Z" transform="translate(503.687 270.192) rotate(180)" fill="#fff" stroke="#4550e5" stroke-linecap="round" stroke-linejoin="round" stroke-width="3.598"/>
      <path id="Caminho_116" data-name="Caminho 116" d="M249.685,141.572a4.317,4.317,0,1,1-8.635,0V128.62a4.317,4.317,0,1,1,8.635,0Z" fill="#d6daff" stroke="#4550e5" stroke-linecap="round" stroke-linejoin="round" stroke-width="3.598"/>
      <path id="Caminho_117" data-name="Caminho 117" d="M197.877,167.476A6.476,6.476,0,1,1,191.4,161a6.476,6.476,0,0,1,6.476,6.476Z" fill="#d6daff" stroke="#4550e5" stroke-linecap="round" stroke-linejoin="round" stroke-width="3.598"/>
      <path id="Caminho_118" data-name="Caminho 118" d="M154.7,135.1V115.668a51.808,51.808,0,1,1,103.616,0V135.1" fill="none" stroke="#4550e5" stroke-linecap="round" stroke-linejoin="round" stroke-width="3.598"/>
      <path id="Caminho_119" data-name="Caminho 119" d="M165.965,288.721h8.023l-17.161-53.283a3.6,3.6,0,0,0-3.6-2.482h-5.253Z" fill="#d6daff" stroke="#4550e5" stroke-linejoin="round" stroke-width="3.598"/>
      <path id="Caminho_120" data-name="Caminho 120" d="M95.808,288.721h70.156l-17.989-55.765H82.749a3.6,3.6,0,0,0-3.418,4.713Z" fill="#d6daff"/>
      <path id="Caminho_121" data-name="Caminho 121" d="M95.808,288.721h73.754v8.994H103a7.2,7.2,0,0,1-7.2-7.2Z" fill="#d6daff" stroke="#4550e5" stroke-linejoin="round" stroke-width="3.598"/>
      <path id="Caminho_122" data-name="Caminho 122" d="M169.563,288.721h32.38a1.8,1.8,0,0,1,1.8,1.8,7.2,7.2,0,0,1-7.2,7.2H169.563Z" fill="#d6daff" stroke="#4550e5" stroke-linejoin="round" stroke-width="3.598"/>
      <path id="Caminho_123" data-name="Caminho 123" d="M125.922,259.039a4.1,4.1,0,0,1,1.8-3.6,4.065,4.065,0,0,0-3.238-1.727c-1.367,0-2.7.792-3.382.792s-1.763-.792-2.914-.756a4.317,4.317,0,0,0-3.6,2.195,9.282,9.282,0,0,0,1.115,8.922c.756,1.079,1.655,2.267,2.806,2.231s1.547-.72,2.878-.72,1.763.72,2.914.684,1.979-1.079,2.734-2.159a11.621,11.621,0,0,0,1.223-2.518,3.814,3.814,0,0,1-2.339-3.346Z" fill="#fff" stroke="#4550e5" stroke-linejoin="round" stroke-width="3.598"/>
      <line id="Linha_63" data-name="Linha 63" y1="1.619" x2="1.619" transform="translate(122.792 247.526)" fill="none" stroke="#4550e5" stroke-linecap="round" stroke-linejoin="round" stroke-width="3.598"/>
      <path id="Caminho_124" data-name="Caminho 124" d="M95.808,288.721h70.156l-17.989-55.765H82.749a3.6,3.6,0,0,0-3.418,4.713Z" fill="none" stroke="#4550e5" stroke-linejoin="round" stroke-width="3.598"/>
    </g>
  </g>
</svg>
