<svg xmlns="http://www.w3.org/2000/svg" xmlns:xlink="http://www.w3.org/1999/xlink" width="300" height="200" viewBox="0 0 300 200">
  <defs>
    <clipPath id="clip-path">
      <rect id="Ret칙ngulo_30" data-name="Ret칙ngulo 30" width="300" height="200" transform="translate(90 1048)" fill="#dedede"/>
    </clipPath>
  </defs>
  <g id="Grupo_de_m치scara_2" data-name="Grupo de m치scara 2" transform="translate(-90 -1048)" clip-path="url(#clip-path)">
    <g id="monitor-loading-progress" transform="translate(96.979 1005.58)">
      <path id="Caminho_62" data-name="Caminho 62" d="M257.437,158.009a114.416,114.416,0,1,0-218.65,47.2H247.254A113.987,113.987,0,0,0,257.437,158.009Z" fill="#f0f2ff"/>
      <line id="Linha_47" data-name="Linha 47" x2="223.112" transform="translate(31.465 205.206)" fill="none" stroke="#4550e5" stroke-linecap="round" stroke-linejoin="round" stroke-width="2.86"/>
      <line id="Linha_48" data-name="Linha 48" x2="7.151" transform="translate(18.593 205.206)" fill="none" stroke="#4550e5" stroke-linecap="round" stroke-linejoin="round" stroke-width="2.86"/>
      <line id="Linha_49" data-name="Linha 49" x2="7.151" transform="translate(260.297 205.206)" fill="none" stroke="#4550e5" stroke-linecap="round" stroke-linejoin="round" stroke-width="2.86"/>
      <ellipse id="Elipse_9" data-name="Elipse 9" cx="42.477" cy="4.891" rx="42.477" ry="4.891" transform="translate(98.913 232.637)" fill="#f0f2ff"/>
      <path id="Caminho_63" data-name="Caminho 63" d="M206.751,123.284a10.355,10.355,0,0,0-10.383-10.355H89.674a10.355,10.355,0,0,0-10.383,10.355v70.738h127.46Z" fill="#d6daff"/>
      <path id="Caminho_64" data-name="Caminho 64" d="M164.445,112.929H89.674a10.355,10.355,0,0,0-10.383,10.355v70.738h4.062Z" fill="#fff"/>
      <path id="Caminho_65" data-name="Caminho 65" d="M158.467,224.914H127.574l1.916-15.446H156.55Z" fill="#fff"/>
      <path id="Caminho_66" data-name="Caminho 66" d="M158.467,224.914H127.574l1.916-15.446H156.55Z" fill="none" stroke="#4550e5" stroke-linecap="round" stroke-linejoin="round" stroke-width="2.86"/>
      <path id="Caminho_67" data-name="Caminho 67" d="M165.132,232.637H120.91a2.4,2.4,0,0,1-2.231-3.347,7.723,7.723,0,0,1,6.951-4.376h34.783a7.723,7.723,0,0,1,6.951,4.376,2.4,2.4,0,0,1-2.231,3.347Z" fill="#fff" stroke="#4550e5" stroke-linecap="round" stroke-linejoin="round" stroke-width="2.86"/>
      <path id="Caminho_68" data-name="Caminho 68" d="M196.367,209.468a10.355,10.355,0,0,0,10.383-10.355v-5.092H79.291v5.092a10.355,10.355,0,0,0,10.383,10.355Z" fill="#fff" stroke="#4550e5" stroke-linecap="round" stroke-linejoin="round" stroke-width="2.86"/>
      <path id="Caminho_69" data-name="Caminho 69" d="M206.751,123.284a10.355,10.355,0,0,0-10.383-10.355H89.674a10.355,10.355,0,0,0-10.383,10.355v70.738h127.46Z" fill="none" stroke="#4550e5" stroke-linecap="round" stroke-linejoin="round" stroke-width="2.86"/>
      <path id="Caminho_70" data-name="Caminho 70" d="M144.737,201.745a1.716,1.716,0,1,1-1.716-1.716A1.716,1.716,0,0,1,144.737,201.745Z" fill="none" stroke="#4550e5" stroke-linecap="round" stroke-linejoin="round" stroke-width="2.86"/>
      <path id="Caminho_71" data-name="Caminho 71" d="M181.322,166.447a6.894,6.894,0,0,1-6.836,6.922H111.556a6.922,6.922,0,0,1,0-13.816h62.929A6.894,6.894,0,0,1,181.322,166.447Z" fill="#d6daff" stroke="#4550e5" stroke-linejoin="round" stroke-width="2.86"/>
      <path id="Caminho_72" data-name="Caminho 72" d="M157.723,159.554H111.556a6.922,6.922,0,0,0,0,13.816h46.167Z" fill="#fff" stroke="#4550e5" stroke-linejoin="round" stroke-width="2.86"/>
      <path id="Caminho_73" data-name="Caminho 73" d="M157.723,159.554H111.556a6.922,6.922,0,0,0,0,13.816h46.167Z" fill="none" stroke="#4550e5" stroke-linejoin="round" stroke-width="2.86"/>
      <path id="Caminho_74" data-name="Caminho 74" d="M120.738,66.762a3.49,3.49,0,0,0-2.86,5.578L140.16,101.2a3.49,3.49,0,0,0,5.492,0L167.935,72.34a3.49,3.49,0,0,0-2.86-5.578h-8.581V50.744A6.894,6.894,0,0,0,149.6,43.85H136.1a6.894,6.894,0,0,0-6.894,6.894V66.762Z" fill="#fff"/>
      <path id="Caminho_75" data-name="Caminho 75" d="M120.738,66.762a3.49,3.49,0,0,0-2.86,5.578L140.16,101.2a3.49,3.49,0,0,0,5.492,0L167.935,72.34a3.49,3.49,0,0,0-2.86-5.578h-8.581V50.744A6.894,6.894,0,0,0,149.6,43.85H136.1a6.894,6.894,0,0,0-6.894,6.894V66.762Z" fill="none" stroke="#4550e5" stroke-linejoin="round" stroke-width="2.86"/>
    </g>
  </g>
</svg>
